<svg xmlns="http://www.w3.org/2000/svg" style="display: none;"><symbol id="facebook" viewBox="0 0 512 512"><title>facebook</title><path d="m512 256c0 141.386719-114.613281 256-256 256s-256-114.613281-256-256 114.613281-256 256-256 256 114.613281 256 256zm0 0" fill="#4a7aff"/><path d="m267.234375 511.738281c136.171875-5.878906 244.765625-118.121093 244.765625-255.738281 0-.996094-.027344-1.988281-.039062-2.984375l-177.699219-177.703125-190 198.59375 105.566406 105.566406-48.675781 66.183594zm0 0" fill="#0053bf"/><path d="m334.261719 75.3125v57.96875s-66.554688-9.660156-66.554688 33.277344v42.9375h60.113281l-7.511718 65.480468h-52.601563v170.679688h-66.554687v-170.679688l-56.894532-1.074218v-64.40625h55.820313v-49.378906s-3.683594-73.457032 68.703125-86.949219c30.058594-5.605469 65.480469 2.144531 65.480469 2.144531zm0 0" fill="#fff"/><path d="m334.261719 133.28125v-57.96875s-35.421875-7.75-65.480469-2.144531c-4.695312.875-9.0625 2.007812-13.136719 3.347656v369.140625h12.0625v-170.679688h52.597657l7.515624-65.480468h-60.113281s0 0 0-42.9375 66.554688-33.277344 66.554688-33.277344zm0 0" fill="#dce1eb"/></symbol><symbol id="google-plus" viewBox="0 0 24 24"><title>google-plus</title><path d="m12 24c6.624 0 12-5.376 12-12s-5.376-12-12-12-12 5.376-12 12 5.376 12 12 12zm4.283-12.857h1.718v-1.717h1.718v1.718h1.703v1.718h-1.703v1.718h-1.718v-1.718h-1.718zm-3.687-3.581-1.626 1.578c-2.08-2.033-6.127-.552-6.127 2.855 0 4.621 6.559 4.937 7.128 1.2h-3.392v-2.061h5.657c.642 3.356-1.525 6.866-5.657 6.866v.001c-3.329 0-6.001-2.686-6.001-6.001.001-5.338 6.333-7.861 10.018-4.438z" fill="#f44336"/></symbol><symbol id="apple" viewBox="0 0 512 512"><title>apple</title><path d="M185.255,512c-76.201-0.439-139.233-155.991-139.233-235.21c0-129.404,97.075-157.734,134.487-157.734 c16.86,0,34.863,6.621,50.742,12.48c11.104,4.087,22.588,8.306,28.975,8.306c3.823,0,12.832-3.589,20.786-6.738 c16.963-6.753,38.071-15.146,62.651-15.146c0.044,0,0.103,0,0.146,0c18.354,0,74.004,4.028,107.461,54.272l7.837,11.777 l-11.279,8.511c-16.113,12.158-45.513,34.336-45.513,78.267c0,52.031,33.296,72.041,49.292,81.665 c7.061,4.248,14.37,8.628,14.37,18.208c0,6.255-49.922,140.566-122.417,140.566c-17.739,0-30.278-5.332-41.338-10.034 c-11.191-4.761-20.845-8.862-36.797-8.862c-8.086,0-18.311,3.823-29.136,7.881C221.496,505.73,204.752,512,185.753,512H185.255z"/><path d="M351.343,0c1.888,68.076-46.797,115.304-95.425,112.342C247.905,58.015,304.54,0,351.343,0z"/></symbol><symbol id="android-logo" viewBox="0 0 553.048 553.048"><title>android-logo</title><path d="M76.774,179.141c-9.529,0-17.614,3.323-24.26,9.969c-6.646,6.646-9.97,14.621-9.97,23.929v142.914 c0,9.541,3.323,17.619,9.97,24.266c6.646,6.646,14.731,9.97,24.26,9.97c9.522,0,17.558-3.323,24.101-9.97 c6.53-6.646,9.804-14.725,9.804-24.266V213.039c0-9.309-3.323-17.283-9.97-23.929C94.062,182.464,86.082,179.141,76.774,179.141z"/><path d="M351.972,50.847L375.57,7.315c1.549-2.882,0.998-5.092-1.658-6.646c-2.883-1.34-5.098-0.661-6.646,1.989l-23.928,43.88 c-21.055-9.309-43.324-13.972-66.807-13.972c-23.488,0-45.759,4.664-66.806,13.972l-23.929-43.88 c-1.555-2.65-3.77-3.323-6.646-1.989c-2.662,1.561-3.213,3.764-1.658,6.646l23.599,43.532 c-23.929,12.203-42.987,29.198-57.167,51.022c-14.18,21.836-21.273,45.698-21.273,71.628h307.426 c0-25.924-7.094-49.787-21.273-71.628C394.623,80.045,375.675,63.05,351.972,50.847z M215.539,114.165 c-2.552,2.558-5.6,3.831-9.143,3.831c-3.55,0-6.536-1.273-8.972-3.831c-2.436-2.546-3.654-5.582-3.654-9.137 c0-3.543,1.218-6.585,3.654-9.137c2.436-2.546,5.429-3.819,8.972-3.819s6.591,1.273,9.143,3.819 c2.546,2.558,3.825,5.594,3.825,9.137C219.357,108.577,218.079,111.619,215.539,114.165z M355.625,114.165 c-2.441,2.558-5.434,3.831-8.971,3.831c-3.551,0-6.598-1.273-9.145-3.831c-2.551-2.546-3.824-5.582-3.824-9.137 c0-3.543,1.273-6.585,3.824-9.137c2.547-2.546,5.594-3.819,9.145-3.819c3.543,0,6.529,1.273,8.971,3.819 c2.438,2.558,3.654,5.594,3.654,9.137C359.279,108.577,358.062,111.619,355.625,114.165z"/><path d="M123.971,406.804c0,10.202,3.543,18.838,10.63,25.925c7.093,7.087,15.729,10.63,25.924,10.63h24.596l0.337,75.454 c0,9.528,3.323,17.619,9.969,24.266s14.627,9.97,23.929,9.97c9.523,0,17.613-3.323,24.26-9.97s9.97-14.737,9.97-24.266v-75.447 h45.864v75.447c0,9.528,3.322,17.619,9.969,24.266s14.73,9.97,24.26,9.97c9.523,0,17.613-3.323,24.26-9.97 s9.969-14.737,9.969-24.266v-75.447h24.928c9.969,0,18.494-3.544,25.594-10.631c7.086-7.087,10.631-15.723,10.631-25.924V185.45 H123.971V406.804z"/><path d="M476.275,179.141c-9.309,0-17.283,3.274-23.93,9.804c-6.646,6.542-9.969,14.578-9.969,24.094v142.914 c0,9.541,3.322,17.619,9.969,24.266s14.627,9.97,23.93,9.97c9.523,0,17.613-3.323,24.26-9.97s9.969-14.725,9.969-24.266V213.039 c0-9.517-3.322-17.552-9.969-24.094C493.888,182.415,485.798,179.141,476.275,179.141z"/></symbol><symbol id="search" viewBox="0 0 512 512"><title>search</title><path style="fill:#FBBB00;" d="M113.47,309.408L95.648,375.94l-65.139,1.378C11.042,341.211,0,299.9,0,256 c0-42.451,10.324-82.483,28.624-117.732h0.014l57.992,10.632l25.404,57.644c-5.317,15.501-8.215,32.141-8.215,49.456 C103.821,274.792,107.225,292.797,113.47,309.408z"/><path style="fill:#518EF8;" d="M507.527,208.176C510.467,223.662,512,239.655,512,256c0,18.328-1.927,36.206-5.598,53.451 c-12.462,58.683-45.025,109.925-90.134,146.187l-0.014-0.014l-73.044-3.727l-10.338-64.535 c29.932-17.554,53.324-45.025,65.646-77.911h-136.89V208.176h138.887L507.527,208.176L507.527,208.176z"/><path style="fill:#28B446;" d="M416.253,455.624l0.014,0.014C372.396,490.901,316.666,512,256,512 c-97.491,0-182.252-54.491-225.491-134.681l82.961-67.91c21.619,57.698,77.278,98.771,142.53,98.771 c28.047,0,54.323-7.582,76.87-20.818L416.253,455.624z"/><path style="fill:#F14336;" d="M419.404,58.936l-82.933,67.896c-23.335-14.586-50.919-23.012-80.471-23.012 c-66.729,0-123.429,42.957-143.965,102.724l-83.397-68.276h-0.014C71.23,56.123,157.06,0,256,0 C318.115,0,375.068,22.126,419.404,58.936z"/></symbol><symbol id="yahoo" viewBox="0 0 512 512"><title>yahoo</title><path style="fill:#7F40BD;" d="M504.783,77.091h-0.006H303.494c-2.036,0-3.977,0.859-5.345,2.366 c-1.368,1.508-2.038,3.52-1.842,5.549l3.925,40.693c0.343,3.552,3.228,6.32,6.792,6.516l42.05,2.314l-80.736,112.023L180.293,71.142 l63.563-2.43c3.844-0.146,6.896-3.276,6.945-7.121l0.464-36.392c0.022-1.932-0.726-3.792-2.082-5.166 c-1.356-1.372-3.206-2.147-5.137-2.147H7.22c-3.989,0-7.22,3.231-7.22,7.221v40.558c0,3.947,3.17,7.163,7.115,7.22l66.917,0.964 l127.257,224.488l-0.568,140.205l-88.48,3.631c-3.817,0.155-6.85,3.259-6.923,7.077l-0.716,37.506 c-0.037,1.939,0.709,3.81,2.069,5.196c1.356,1.383,3.212,2.161,5.151,2.161h276.762c1.981,0,3.875-0.813,5.239-2.249 c1.363-1.435,2.078-3.368,1.974-5.346l-1.933-37.132c-0.192-3.692-3.14-6.641-6.835-6.834l-76.124-3.992l-11.082-136.57 L436.479,137.33l55.64-2.53c3.063-0.142,5.704-2.202,6.587-5.139l12.909-43.018c0.248-0.729,0.385-1.516,0.385-2.332 C512,80.325,508.772,77.091,504.783,77.091z"/></symbol><symbol id="facebook-1" viewBox="0 0 24 24"><title>facebook-1</title><path d="m15.997 3.985h2.191v-3.816c-.378-.052-1.678-.169-3.192-.169-6.932 0-5.046 7.85-5.322 9h-3.487v4.266h3.486v10.734h4.274v-10.733h3.345l.531-4.266h-3.877c.188-2.824-.761-5.016 2.051-5.016z" fill="#3b5999"/></symbol><symbol id="paypal" viewBox="0 0 512.001 512.001"><title>paypal</title><path style="fill:#03A9F4;" d="M425.457,117.739c-3.121-1.838-6.961-1.966-10.197-0.341c-3.231,1.629-5.416,4.786-5.803,8.384 c-0.384,3.499-0.981,6.997-1.728,10.667c-20.885,94.784-62.827,140.885-128.256,140.885h-96c-5.062,0.009-9.42,3.574-10.432,8.533 l-32,149.995l-5.717,38.187c-3.287,17.365,8.125,34.107,25.489,37.394c1.915,0.362,3.858,0.549,5.807,0.558h64.213 c14.718,0.045,27.55-10,31.04-24.299l25.941-103.701h55.659c65.685,0,111.083-52.373,127.829-147.477l0,0 C482.356,191.238,464.068,143.856,425.457,117.739z"/><path style="fill:#283593;" d="M405.339,38.017c-21.078-23.909-51.327-37.731-83.2-38.016h-176.64 C119.064-0.141,96.558,19.2,92.721,45.355L37.873,411.243c-2.627,17.477,9.41,33.774,26.887,36.402 c1.586,0.239,3.189,0.357,4.793,0.356h81.92c5.062-0.009,9.42-3.574,10.432-8.533l30.187-140.8h87.467 c75.904,0,126.059-53.056,149.099-157.867c0.926-4.178,1.638-8.4,2.133-12.651C436.139,95.815,426.81,62.778,405.339,38.017z"/></symbol><symbol id="camera" viewBox="0 0 420.8 420.8"><title>camera</title><path d="M406.8,96.4c-8.4-8.8-20-14-33.2-14h-66.4v-0.8c0-10-4-19.6-10.8-26c-6.8-6.8-16-10.8-26-10.8h-120 c-10.4,0-19.6,4-26.4,10.8c-6.8,6.8-10.8,16-10.8,26v0.8h-66c-13.2,0-24.8,5.2-33.2,14c-8.4,8.4-14,20.4-14,33.2v199.2 C0,342,5.2,353.6,14,362c8.4,8.4,20.4,14,33.2,14h326.4c13.2,0,24.8-5.2,33.2-14c8.4-8.4,14-20.4,14-33.2V129.6 C420.8,116.4,415.6,104.8,406.8,96.4z M400,328.8h-0.4c0,7.2-2.8,13.6-7.6,18.4s-11.2,7.6-18.4,7.6H47.2 c-7.2,0-13.6-2.8-18.4-7.6c-4.8-4.8-7.6-11.2-7.6-18.4V129.6c0-7.2,2.8-13.6,7.6-18.4s11.2-7.6,18.4-7.6h77.2 c6,0,10.8-4.8,10.8-10.8V81.2c0-4.4,1.6-8.4,4.4-11.2s6.8-4.4,11.2-4.4h119.6c4.4,0,8.4,1.6,11.2,4.4c2.8,2.8,4.4,6.8,4.4,11.2 v11.6c0,6,4.8,10.8,10.8,10.8H374c7.2,0,13.6,2.8,18.4,7.6s7.6,11.2,7.6,18.4V328.8z"/><path d="M210.4,130.8c-27.2,0-52,11.2-69.6,28.8c-18,18-28.8,42.4-28.8,69.6s11.2,52,28.8,69.6c18,18,42.4,28.8,69.6,28.8 s52-11.2,69.6-28.8c18-18,28.8-42.4,28.8-69.6s-11.2-52-28.8-69.6C262.4,142,237.6,130.8,210.4,130.8z M264.8,284 c-14,13.6-33.2,22.4-54.4,22.4S170,297.6,156,284c-14-14-22.4-33.2-22.4-54.4c0-21.2,8.8-40.4,22.4-54.4 c14-14,33.2-22.4,54.4-22.4s40.4,8.8,54.4,22.4c14,14,22.4,33.2,22.4,54.4C287.6,250.8,278.8,270,264.8,284z"/><circle cx="352.8" cy="150" r="19.6"/></symbol><symbol id="view" viewBox="0 0 511.999 511.999"><title>view</title><g> <g> <path d="M508.745,246.041c-4.574-6.257-113.557-153.206-252.748-153.206S7.818,239.784,3.249,246.035 c-4.332,5.936-4.332,13.987,0,19.923c4.569,6.257,113.557,153.206,252.748,153.206s248.174-146.95,252.748-153.201 C513.083,260.028,513.083,251.971,508.745,246.041z M255.997,385.406c-102.529,0-191.33-97.533-217.617-129.418 c26.253-31.913,114.868-129.395,217.617-129.395c102.524,0,191.319,97.516,217.617,129.418 C447.361,287.923,358.746,385.406,255.997,385.406z"/> </g> </g><g> <g> <path d="M255.997,154.725c-55.842,0-101.275,45.433-101.275,101.275s45.433,101.275,101.275,101.275 s101.275-45.433,101.275-101.275S311.839,154.725,255.997,154.725z M255.997,323.516c-37.23,0-67.516-30.287-67.516-67.516 s30.287-67.516,67.516-67.516s67.516,30.287,67.516,67.516S293.227,323.516,255.997,323.516z"/> </g> </g></symbol><symbol id="image" viewBox="0 0 512 512"><title>image</title><g> <g> <path d="M446.575,0H65.425C29.349,0,0,29.35,0,65.426v381.149C0,482.65,29.349,512,65.425,512h381.15 C482.651,512,512,482.65,512,446.574V65.426C512,29.35,482.651,0,446.575,0z M481.842,446.575 c0,19.447-15.821,35.267-35.267,35.267H65.425c-19.447,0-35.268-15.821-35.268-35.267v-55.007l99.255-84.451 c3.622-3.082,8.906-3.111,12.562-0.075l62.174,51.628c5.995,4.977,14.795,4.569,20.304-0.946L372.181,209.77 c2.67-2.675,5.783-2.935,7.408-2.852c1.62,0.083,4.695,0.661,7.078,3.596l95.176,117.19V446.575z M481.842,279.865l-71.766-88.366 c-7.117-8.764-17.666-14.122-28.942-14.701c-11.268-0.57-22.317,3.672-30.294,11.662L212.832,326.681l-51.59-42.839 c-14.959-12.422-36.563-12.293-51.373,0.308l-79.712,67.822V65.426c0-19.447,15.821-35.268,35.268-35.268h381.15 c19.447,0,35.267,15.821,35.267,35.268V279.865z"/> </g> </g><g> <g> <path d="M161.174,62.995c-40.095,0-72.713,32.62-72.713,72.713c0,40.094,32.619,72.713,72.713,72.713s72.713-32.619,72.713-72.713 S201.269,62.995,161.174,62.995z M161.174,178.264c-23.466,0-42.556-19.091-42.556-42.556c0-23.466,19.09-42.556,42.556-42.556 c23.466,0,42.556,19.091,42.556,42.556S184.64,178.264,161.174,178.264z"/> </g> </g></symbol><symbol id="video-camera" viewBox="0 0 74 74"><title>video-camera</title><path d="m48.139 65.958h-42.688a4.457 4.457 0 0 1 -4.451-4.452v-29.206a4.456 4.456 0 0 1 4.451-4.451h42.688a4.456 4.456 0 0 1 4.451 4.451v29.206a4.456 4.456 0 0 1 -4.451 4.452zm-42.688-36.11a2.454 2.454 0 0 0 -2.451 2.452v29.206a2.455 2.455 0 0 0 2.451 2.452h42.688a2.454 2.454 0 0 0 2.451-2.452v-29.206a2.454 2.454 0 0 0 -2.451-2.451z"/><path d="m55.613 56.646h-4.023a1 1 0 0 1 -1-1v-17.487a1 1 0 0 1 1-1h4.023a1 1 0 0 1 1 1v17.487a1 1 0 0 1 -1 1zm-3.023-2h2.023v-15.487h-2.023z"/><path d="m72 62.425a.984.984 0 0 1 -.333-.057l-16.386-5.779a1 1 0 0 1 -.668-.943v-17.487a1 1 0 0 1 .668-.943l16.386-5.778a1 1 0 0 1 1.333.942v29.045a1 1 0 0 1 -1 1zm-15.387-7.486 14.387 5.073v-26.219l-14.387 5.074z"/><path d="m34.577 29.848a10.9 10.9 0 1 1 10.9-10.9 10.915 10.915 0 0 1 -10.9 10.9zm0-19.806a8.9 8.9 0 1 0 8.9 8.9 8.913 8.913 0 0 0 -8.9-8.9z"/><path d="m15.505 29.848a7.235 7.235 0 1 1 7.235-7.235 7.242 7.242 0 0 1 -7.235 7.235zm0-12.47a5.235 5.235 0 1 0 5.235 5.235 5.24 5.24 0 0 0 -5.235-5.235z"/><path d="m13.125 56.167h-6.833a1 1 0 0 1 0-2h6.833a1 1 0 0 1 0 2z"/><path d="m16.75 60.5h-10.458a1 1 0 0 1 0-2h10.458a1 1 0 0 1 0 2z"/></symbol><symbol id="place-localizer" viewBox="0 0 490 490"><title>place-localizer</title><path d="M245.001,0C156.458,0,84.424,71.987,84.424,160.472c0,85.04,145.93,315.146,152.142,324.9 c1.836,2.882,5.017,4.628,8.435,4.628c3.418,0,6.599-1.746,8.434-4.628c6.212-9.754,152.141-239.861,152.141-324.9 C405.576,71.987,333.542,0,245.001,0z M245.001,461.127c-13.207-21.363-40.009-65.587-66.549-114.588 c-48.429-89.418-74.027-153.758-74.027-186.067C104.424,83.015,167.487,20,245.001,20c77.514,0,140.575,63.015,140.575,140.472 c0,32.309-25.599,96.649-74.027,186.067C285.009,395.539,258.207,439.764,245.001,461.127z"/><path d="M244.999,76.071c-41.884,0-75.959,33.149-75.959,73.894c0,40.744,34.075,73.891,75.959,73.891s75.959-33.147,75.959-73.891 C320.958,109.22,286.883,76.071,244.999,76.071z M244.999,203.855c-30.855,0-55.959-24.175-55.959-53.891 c0-29.717,25.104-53.894,55.959-53.894s55.959,24.177,55.959,53.894C300.958,179.68,275.855,203.855,244.999,203.855z"/></symbol><symbol id="play" viewBox="0 0 511.999 511.999"><title>play</title><path d="M443.86,196.919L141.46,10.514C119.582-2.955,93.131-3.515,70.702,9.016c-22.429,12.529-35.819,35.35-35.819,61.041 v371.112c0,38.846,31.3,70.619,69.77,70.829c0.105,0,0.21,0.001,0.313,0.001c12.022-0.001,24.55-3.769,36.251-10.909 c9.413-5.743,12.388-18.029,6.645-27.441c-5.743-9.414-18.031-12.388-27.441-6.645c-5.473,3.338-10.818,5.065-15.553,5.064 c-14.515-0.079-30.056-12.513-30.056-30.898V70.058c0-11.021,5.744-20.808,15.364-26.183c9.621-5.375,20.966-5.135,30.339,0.636 l302.401,186.405c9.089,5.596,14.29,14.927,14.268,25.601c-0.022,10.673-5.261,19.983-14.4,25.56L204.147,415.945 c-9.404,5.758-12.36,18.049-6.602,27.452c5.757,9.404,18.048,12.36,27.452,6.602l218.611-133.852 c20.931-12.769,33.457-35.029,33.507-59.55C477.165,232.079,464.729,209.767,443.86,196.919z"/></symbol><symbol id="add-group" viewBox="0 0 511.99981 511"><title>add-group</title><path d="m296.464844 336.097656c-12.519532-8.734375-25.898438-15.851562-39.890625-21.289062 18.613281-16.917969 30.960937-40.617188 33.109375-67.148438 28.226562-27.503906 65.226562-42.582031 104.890625-42.582031 30.964843 0 60.695312 9.324219 85.984375 26.960937 9.0625 6.320313 21.523437 4.101563 27.84375-4.960937 6.316406-9.058594 4.097656-21.523437-4.960938-27.839844-12.519531-8.734375-25.902344-15.847656-39.894531-21.289062 20.539063-18.667969 33.453125-45.585938 33.453125-75.460938 0-56.238281-45.75-101.988281-101.988281-101.988281-56.234375 0-101.984375 45.75-101.984375 101.988281 0 29.753907 12.808594 56.574219 33.207031 75.234375-2.792969 1.074219-5.570313 2.210938-8.320313 3.421875-12.515624 5.507813-24.28125 12.28125-35.222656 20.234375-15.089844-37.488281-51.828125-64.019531-94.652344-64.019531-56.234374 0-101.988281 45.75-101.988281 101.984375 0 29.671875 12.738281 56.417969 33.027344 75.070312-54.246094 20.324219-98.230469 63.976563-116.136719 119.648438-5.9375 18.460938-2.792968 38.039062 8.628906 53.714844 11.421876 15.671875 29.09375 24.660156 48.484376 24.660156h173.980468c11.042969 0 19.996094-8.953125 19.996094-20 0-11.042969-8.953125-19.996094-19.996094-19.996094h-173.980468c-6.464844 0-12.355469-2.996094-16.164063-8.222656s-4.855469-11.753906-2.878906-17.910156c19.765625-61.453125 80.046875-104.371094 146.589843-104.371094 30.960938 0 60.695313 9.324219 85.984376 26.960938 9.058593 6.320312 21.523437 4.097656 27.84375-4.960938 6.316406-9.058594 4.097656-21.523438-4.964844-27.839844zm98.546875-295.601562c34.183593 0 61.992187 27.808594 61.992187 61.992187 0 34.179688-27.808594 61.992188-61.992187 61.992188-34.179688 0-61.992188-27.8125-61.992188-61.992188 0-34.183593 27.8125-61.992187 61.992188-61.992187zm-206.972657 136.855468c34.183594 0 61.992188 27.8125 61.992188 61.992188 0 34.183594-27.808594 61.992188-61.992188 61.992188-34.183593 0-61.992187-27.808594-61.992187-61.992188 0-34.179688 27.808594-61.992188 61.992187-61.992188zm323.960938 240.097657c0 11.042969-8.953125 19.996093-20 19.996093h-54.992188v54.992188c0 11.046875-8.953124 20-19.996093 20-11.046875 0-20-8.953125-20-20v-54.992188h-54.992188c-11.042969 0-19.996093-8.953124-19.996093-19.996093 0-11.046875 8.953124-20 19.996093-20h54.992188v-54.992188c0-11.042969 8.953125-19.996093 20-19.996093 11.042969 0 19.996093 8.953124 19.996093 19.996093v54.992188h54.992188c11.046875 0 20 8.953125 20 20zm0 0"/></symbol><symbol id="harddrive" viewBox="1 -36 511.9993 511"><title>harddrive</title><path d="m334.574219 405.015625c19.136719 0 34.703125-15.570313 34.703125-34.707031 0-19.136719-15.566406-34.703125-34.703125-34.703125s-34.707031 15.566406-34.707031 34.703125c0 19.136718 15.570312 34.707031 34.707031 34.707031zm0-49.410156c8.109375 0 14.707031 6.597656 14.707031 14.707031 0 8.105469-6.597656 14.703125-14.707031 14.703125s-14.707031-6.597656-14.707031-14.703125c0-8.113281 6.597656-14.707031 14.707031-14.707031zm0 0"/><path d="m41.582031 370.308594c0 16.96875 13.804688 30.773437 30.773438 30.773437h176.308593c16.96875 0 30.773438-13.804687 30.773438-30.773437s-13.804688-30.773438-30.773438-30.773438h-176.308593c-16.96875 0-30.773438 13.804688-30.773438 30.773438zm30.773438-10.773438h176.308593c5.941407 0 10.777344 4.832032 10.777344 10.773438s-4.835937 10.777344-10.777344 10.777344h-176.308593c-5.941407 0-10.777344-4.835938-10.777344-10.777344s4.835937-10.773438 10.777344-10.773438zm0 0"/><path d="m81.375 320.230469c5.523438 0 10-4.476563 10-10 0-5.523438-4.476562-10-10-10h-.027344c-5.519531 0-9.984375 4.476562-9.984375 10 0 5.523437 4.488281 10 10.011719 10zm0 0"/><path d="m409.285156 150.445312 36.980469-66.980468c2.667969-4.835938.914063-10.917969-3.921875-13.585938-4.832031-2.671875-10.917969-.914062-13.585938 3.921875l-36.976562 66.980469c-2.09375 3.789062-6.914062 5.042969-10.585938 2.785156l-18.078124-11.125c-4.703126-2.894531-10.863282-1.429687-13.757813 3.273438-2.894531 4.707031-1.425781 10.863281 3.277344 13.757812l18.078125 11.125c13.445312 8.277344 30.972656 3.613282 38.570312-10.152344zm0 0"/><path d="m397.578125 229.113281h.113281c63.03125 0 114.308594-51.277343 114.308594-114.304687 0-63.585938-51.890625-115.207032-115.933594-114.296875-61.320312.851562-111.398437 50.558593-112.65625 111.902343-.285156 13.851563 1.902344 27.410157 6.355469 40.148438h-193.988281c-24.546875 0-46.789063 15.460938-55.339844 38.472656-33.539062 90.289063-36.800781 107.097656-38.222656 117.867188-.003906.003906-.003906.011718-.003906.015625-.003907.015625-.003907.03125-.007813.046875-.164063 1.261718-.320313 2.523437-.46875 3.785156-.011719.097656-.023437.199219-.035156.300781-2.667969 23.113281-1.296875 35.269531-1.667969 86.492188 0 22.523437 18.324219 40.847656 40.847656 40.847656h339.207032c22.523437 0 40.851562-18.324219 40.851562-40.847656-.445312-51.0625 1.222656-64.832031-2.175781-90.566407 0-.019531-.003907-.039062-.007813-.058593 0-.003907 0-.011719-.003906-.019531-2.113281-15.988282-24.011719-79.625-24.011719-79.625.933594-.09375 1.875-.160157 2.824219-.160157zm-338.394531-31.113281c5.652344-15.214844 20.359375-25.4375 36.59375-25.4375h203.246094c12.0625 20.550781 20.917968 21.609375 21.53125 36.3125l1.1875 28.527344c.695312 16.695312 19.714843 25.875 33.21875 16.089844l21.625-15.664063s19.476562 56.464844 20.5625 62.402344h-275.800782c-5.523437 0-10 4.476562-10 10 0 5.523437 4.476563 10 10 10h278.5625c1.363282 14.511719 1.003906 19.742187 1.027344 79.308593 0 11.496094-9.355469 20.851563-20.847656 20.851563h-339.210938c-11.496094 0-20.851562-9.355469-20.851562-20.851563.023437-58.929687-.339844-64.765624 1.027344-79.308593h20.296874c5.523438 0 10-4.476563 10-10 0-5.523438-4.476562-10-10-10h-17.535156c1.085938-5.9375 35.367188-102.230469 35.367188-102.230469zm310.460937 20.160156c-35.492187 25.710938-24.269531 17.84375-26.53125 19.210938-.460937.285156-1.355469.007812-1.390625-.804688l-1.1875-28.527344c-.445312-10.734374-4.710937-21.226562-12.144531-29.28125-.011719-.011718-.023437-.023437-.035156-.039062-16.058594-17.410156-25.464844-40.757812-24.949219-65.894531 1.035156-50.539063 42.375-91.613281 92.941406-92.316407.453125-.007812.902344-.007812 1.351563-.007812 51.722656 0 94.300781 41.8125 94.300781 94.304688 0 52.003906-42.304688 94.308593-94.304688 94.308593h-.113281c-.007812 0-.015625 0-.027343 0-10.292969 0-19.953126 3.285157-27.910157 9.046875zm0 0"/></symbol><symbol id="speech-bubble" viewBox="0 -26 512 512"><title>speech-bubble</title><path d="m256 100c-5.519531 0-10 4.480469-10 10s4.480469 10 10 10 10-4.480469 10-10-4.480469-10-10-10zm0 0"/><path d="m90 280c5.519531 0 10-4.480469 10-10s-4.480469-10-10-10-10 4.480469-10 10 4.480469 10 10 10zm0 0"/><path d="m336 0c-90.027344 0-163.917969 62.070312-169.632812 140.253906-85.738282 4.300782-166.367188 66.125-166.367188 149.746094 0 34.945312 13.828125 68.804688 39 95.632812 4.980469 20.53125-1.066406 42.292969-16.070312 57.296876-2.859376 2.859374-3.714844 7.160156-2.167969 10.898437 1.546875 3.734375 5.191406 6.171875 9.238281 6.171875 28.519531 0 56.003906-11.183594 76.425781-30.890625 19.894531 6.78125 45.851563 10.890625 69.574219 10.890625 90.015625 0 163.898438-62.054688 169.628906-140.222656 20.9375-.929688 42.714844-4.796875 59.945313-10.667969 20.421875 19.707031 47.90625 30.890625 76.425781 30.890625 4.046875 0 7.691406-2.4375 9.238281-6.171875 1.546875-3.738281.691407-8.039063-2.167969-10.898437-15.003906-15.003907-21.050781-36.765626-16.070312-57.296876 25.171875-26.828124 39-60.6875 39-95.632812 0-86.886719-86.839844-150-176-150zm-160 420c-23.601562 0-50.496094-4.632812-68.511719-11.800781-3.859375-1.539063-8.269531-.527344-11.078125 2.539062-12.074218 13.199219-27.773437 22.402344-44.878906 26.632813 9.425781-18.058594 11.832031-39.347656 6.097656-59.519532-.453125-1.589843-1.292968-3.042968-2.445312-4.226562-22.6875-23.367188-35.183594-53.066406-35.183594-83.625 0-70.46875 71.4375-130 156-130 79.851562 0 150 55.527344 150 130 0 71.683594-67.289062 130-150 130zm280.816406-186.375c-1.152344 1.1875-1.992187 2.640625-2.445312 4.226562-5.734375 20.171876-3.328125 41.460938 6.097656 59.519532-17.105469-4.226563-32.804688-13.433594-44.878906-26.632813-2.808594-3.0625-7.21875-4.078125-11.078125-2.539062-15.613281 6.210937-37.886719 10.511719-58.914063 11.550781-2.921875-37.816406-21.785156-73.359375-54.035156-99.75h130.4375c5.523438 0 10-4.476562 10-10s-4.476562-10-10-10h-161.160156c-22.699219-11.554688-48.1875-18.292969-74.421875-19.707031 5.746093-67.164063 70.640625-120.292969 149.582031-120.292969 84.5625 0 156 59.53125 156 130 0 30.558594-12.496094 60.257812-35.183594 83.625zm0 0"/><path d="m256 260h-126c-5.523438 0-10 4.476562-10 10s4.476562 10 10 10h126c5.523438 0 10-4.476562 10-10s-4.476562-10-10-10zm0 0"/><path d="m256 320h-166c-5.523438 0-10 4.476562-10 10s4.476562 10 10 10h166c5.523438 0 10-4.476562 10-10s-4.476562-10-10-10zm0 0"/><path d="m422 100h-126c-5.523438 0-10 4.476562-10 10s4.476562 10 10 10h126c5.523438 0 10-4.476562 10-10s-4.476562-10-10-10zm0 0"/></symbol><symbol id="settings" viewBox="0 0 512 512"><title>settings</title><path d="m272.066 512h-32.133c-25.989 0-47.134-21.144-47.134-47.133v-10.871c-11.049-3.53-21.784-7.986-32.097-13.323l-7.704 7.704c-18.659 18.682-48.548 18.134-66.665-.007l-22.711-22.71c-18.149-18.129-18.671-48.008.006-66.665l7.698-7.698c-5.337-10.313-9.792-21.046-13.323-32.097h-10.87c-25.988 0-47.133-21.144-47.133-47.133v-32.134c0-25.989 21.145-47.133 47.134-47.133h10.87c3.531-11.05 7.986-21.784 13.323-32.097l-7.704-7.703c-18.666-18.646-18.151-48.528.006-66.665l22.713-22.712c18.159-18.184 48.041-18.638 66.664.006l7.697 7.697c10.313-5.336 21.048-9.792 32.097-13.323v-10.87c0-25.989 21.144-47.133 47.134-47.133h32.133c25.989 0 47.133 21.144 47.133 47.133v10.871c11.049 3.53 21.784 7.986 32.097 13.323l7.704-7.704c18.659-18.682 48.548-18.134 66.665.007l22.711 22.71c18.149 18.129 18.671 48.008-.006 66.665l-7.698 7.698c5.337 10.313 9.792 21.046 13.323 32.097h10.87c25.989 0 47.134 21.144 47.134 47.133v32.134c0 25.989-21.145 47.133-47.134 47.133h-10.87c-3.531 11.05-7.986 21.784-13.323 32.097l7.704 7.704c18.666 18.646 18.151 48.528-.006 66.665l-22.713 22.712c-18.159 18.184-48.041 18.638-66.664-.006l-7.697-7.697c-10.313 5.336-21.048 9.792-32.097 13.323v10.871c0 25.987-21.144 47.131-47.134 47.131zm-106.349-102.83c14.327 8.473 29.747 14.874 45.831 19.025 6.624 1.709 11.252 7.683 11.252 14.524v22.148c0 9.447 7.687 17.133 17.134 17.133h32.133c9.447 0 17.134-7.686 17.134-17.133v-22.148c0-6.841 4.628-12.815 11.252-14.524 16.084-4.151 31.504-10.552 45.831-19.025 5.895-3.486 13.4-2.538 18.243 2.305l15.688 15.689c6.764 6.772 17.626 6.615 24.224.007l22.727-22.726c6.582-6.574 6.802-17.438.006-24.225l-15.695-15.695c-4.842-4.842-5.79-12.348-2.305-18.242 8.473-14.326 14.873-29.746 19.024-45.831 1.71-6.624 7.684-11.251 14.524-11.251h22.147c9.447 0 17.134-7.686 17.134-17.133v-32.134c0-9.447-7.687-17.133-17.134-17.133h-22.147c-6.841 0-12.814-4.628-14.524-11.251-4.151-16.085-10.552-31.505-19.024-45.831-3.485-5.894-2.537-13.4 2.305-18.242l15.689-15.689c6.782-6.774 6.605-17.634.006-24.225l-22.725-22.725c-6.587-6.596-17.451-6.789-24.225-.006l-15.694 15.695c-4.842 4.843-12.35 5.791-18.243 2.305-14.327-8.473-29.747-14.874-45.831-19.025-6.624-1.709-11.252-7.683-11.252-14.524v-22.15c0-9.447-7.687-17.133-17.134-17.133h-32.133c-9.447 0-17.134 7.686-17.134 17.133v22.148c0 6.841-4.628 12.815-11.252 14.524-16.084 4.151-31.504 10.552-45.831 19.025-5.896 3.485-13.401 2.537-18.243-2.305l-15.688-15.689c-6.764-6.772-17.627-6.615-24.224-.007l-22.727 22.726c-6.582 6.574-6.802 17.437-.006 24.225l15.695 15.695c4.842 4.842 5.79 12.348 2.305 18.242-8.473 14.326-14.873 29.746-19.024 45.831-1.71 6.624-7.684 11.251-14.524 11.251h-22.148c-9.447.001-17.134 7.687-17.134 17.134v32.134c0 9.447 7.687 17.133 17.134 17.133h22.147c6.841 0 12.814 4.628 14.524 11.251 4.151 16.085 10.552 31.505 19.024 45.831 3.485 5.894 2.537 13.4-2.305 18.242l-15.689 15.689c-6.782 6.774-6.605 17.634-.006 24.225l22.725 22.725c6.587 6.596 17.451 6.789 24.225.006l15.694-15.695c3.568-3.567 10.991-6.594 18.244-2.304z"/><path d="m256 367.4c-61.427 0-111.4-49.974-111.4-111.4s49.973-111.4 111.4-111.4 111.4 49.974 111.4 111.4-49.973 111.4-111.4 111.4zm0-192.8c-44.885 0-81.4 36.516-81.4 81.4s36.516 81.4 81.4 81.4 81.4-36.516 81.4-81.4-36.515-81.4-81.4-81.4z"/></symbol><symbol id="printer" viewBox="0 0 512 512"><title>printer</title><path d="m437 129h-14v-54c0-41.355-33.645-75-75-75h-184c-41.355 0-75 33.645-75 75v54h-14c-41.355 0-75 33.645-75 75v120c0 41.355 33.645 75 75 75h14v68c0 24.813 20.187 45 45 45h244c24.813 0 45-20.187 45-45v-68h14c41.355 0 75-33.645 75-75v-120c0-41.355-33.645-75-75-75zm-318-54c0-24.813 20.187-45 45-45h184c24.813 0 45 20.187 45 45v54h-274zm274 392c0 8.271-6.729 15-15 15h-244c-8.271 0-15-6.729-15-15v-148h274zm89-143c0 24.813-20.187 45-45 45h-14v-50h9c8.284 0 15-6.716 15-15s-6.716-15-15-15h-352c-8.284 0-15 6.716-15 15s6.716 15 15 15h9v50h-14c-24.813 0-45-20.187-45-45v-120c0-24.813 20.187-45 45-45h362c24.813 0 45 20.187 45 45z"/><path d="m296 353h-80c-8.284 0-15 6.716-15 15s6.716 15 15 15h80c8.284 0 15-6.716 15-15s-6.716-15-15-15z"/><path d="m296 417h-80c-8.284 0-15 6.716-15 15s6.716 15 15 15h80c8.284 0 15-6.716 15-15s-6.716-15-15-15z"/><path d="m128 193h-48c-8.284 0-15 6.716-15 15s6.716 15 15 15h48c8.284 0 15-6.716 15-15s-6.716-15-15-15z"/></symbol><symbol id="next" viewBox="0 0 384.97 384.97"><title>next</title><path d="M192.485,0C86.173,0,0,86.173,0,192.485c0,106.3,86.173,192.485,192.485,192.485c106.3,0,192.485-86.185,192.485-192.485 C384.97,86.173,298.785,0,192.485,0z M192.485,360.909c-92.874,0-168.424-75.55-168.424-168.424S99.611,23.688,192.485,23.688 s168.424,75.923,168.424,168.797S285.359,360.909,192.485,360.909z"/><path d="M166.114,99.503c-4.704-4.74-12.319-4.74-17.011,0c-4.704,4.752-4.704,12.439,0,17.191l74.528,75.61l-74.54,75.61 c-4.704,4.74-4.704,12.439,0,17.191c4.704,4.74,12.319,4.74,17.011,0l83.009-84.2c4.572-4.632,4.584-12.56,0-17.191 L166.114,99.503z"/></symbol><symbol id="left-arrow" viewBox="0 0 512 512"><title>left-arrow</title><path d="M256,0C114.615,0,0,114.615,0,256s114.615,256,256,256s256-114.615,256-256S397.385,0,256,0z M256,480 C132.288,480,32,379.712,32,256S132.288,32,256,32s224,100.288,224,224S379.712,480,256,480z"/><path d="M292.64,116.8l-128,128c-6.204,6.241-6.204,16.319,0,22.56l128,128l22.56-22.72L198.56,256L315.2,139.36L292.64,116.8z"/></symbol><symbol id="email" viewBox="0 0 512 512"><title>email</title><path d="M467,61H45C20.218,61,0,81.196,0,106v300c0,24.72,20.128,45,45,45h422c24.72,0,45-20.128,45-45V106 C512,81.28,491.872,61,467,61z M460.786,91L256.954,294.833L51.359,91H460.786z M30,399.788V112.069l144.479,143.24L30,399.788z M51.213,421l144.57-144.57l50.657,50.222c5.864,5.814,15.327,5.795,21.167-0.046L317,277.213L460.787,421H51.213z M482,399.787 L338.213,256L482,112.212V399.787z"/></symbol><symbol id="windows" viewBox="0 0 512 512"><title>windows</title><g> <g> <polygon points="0,80 0,240 224,240 224,52 "/> </g> </g><g> <g> <polygon points="256,48 256,240 512,240 512,16 "/> </g> </g><g> <g> <polygon points="256,272 256,464 512,496 512,272 "/> </g> </g><g> <g> <polygon points="0,272 0,432 224,460 224,272 "/> </g> </g></symbol><symbol id="twitter" viewBox="0 0 112.197 112.197"><title>twitter</title><circle style="fill:#55ACEE;" cx="56.099" cy="56.098" r="56.098"/><g> <path style="fill:#F1F2F2;" d="M90.461,40.316c-2.404,1.066-4.99,1.787-7.702,2.109c2.769-1.659,4.894-4.284,5.897-7.417 c-2.591,1.537-5.462,2.652-8.515,3.253c-2.446-2.605-5.931-4.233-9.79-4.233c-7.404,0-13.409,6.005-13.409,13.409 c0,1.051,0.119,2.074,0.349,3.056c-11.144-0.559-21.025-5.897-27.639-14.012c-1.154,1.98-1.816,4.285-1.816,6.742 c0,4.651,2.369,8.757,5.965,11.161c-2.197-0.069-4.266-0.672-6.073-1.679c-0.001,0.057-0.001,0.114-0.001,0.17 c0,6.497,4.624,11.916,10.757,13.147c-1.124,0.308-2.311,0.471-3.532,0.471c-0.866,0-1.705-0.083-2.523-0.239 c1.706,5.326,6.657,9.203,12.526,9.312c-4.59,3.597-10.371,5.74-16.655,5.74c-1.08,0-2.15-0.063-3.197-0.188 c5.931,3.806,12.981,6.025,20.553,6.025c24.664,0,38.152-20.432,38.152-38.153c0-0.581-0.013-1.16-0.039-1.734 C86.391,45.366,88.664,43.005,90.461,40.316L90.461,40.316z"/> </g></symbol></svg>